<mxfile host="app.diagrams.net" modified="2022-05-05T10:00:45.890Z" agent="5.0 (Windows)" etag="41FiMJ1QB-6rWKfiuu7c" version="18.0.0" type="github">
  <diagram id="mGXFszXUA8qJ91UP9Rht" name="Page-1">
    <mxGraphModel dx="1102" dy="564" grid="1" gridSize="10" guides="1" tooltips="1" connect="1" arrows="1" fold="1" page="1" pageScale="1" pageWidth="827" pageHeight="1169" math="0" shadow="0">
      <root>
        <mxCell id="0" />
        <mxCell id="1" parent="0" />
        <mxCell id="mMATlmjo8T0dQmAiqcII-5" value="" style="edgeStyle=orthogonalEdgeStyle;rounded=0;orthogonalLoop=1;jettySize=auto;html=1;" edge="1" parent="1" source="mMATlmjo8T0dQmAiqcII-1" target="mMATlmjo8T0dQmAiqcII-4">
          <mxGeometry relative="1" as="geometry" />
        </mxCell>
        <mxCell id="mMATlmjo8T0dQmAiqcII-1" value="Entity" style="rounded=1;arcSize=10;whiteSpace=wrap;html=1;align=center;" vertex="1" parent="1">
          <mxGeometry x="360" y="230" width="100" height="40" as="geometry" />
        </mxCell>
        <mxCell id="mMATlmjo8T0dQmAiqcII-2" value="" style="endArrow=classic;html=1;rounded=0;" edge="1" parent="1">
          <mxGeometry relative="1" as="geometry">
            <mxPoint x="360" y="250" as="sourcePoint" />
            <mxPoint x="460" y="250" as="targetPoint" />
          </mxGeometry>
        </mxCell>
        <mxCell id="mMATlmjo8T0dQmAiqcII-3" value="Label" style="edgeLabel;resizable=0;html=1;align=center;verticalAlign=middle;" connectable="0" vertex="1" parent="mMATlmjo8T0dQmAiqcII-2">
          <mxGeometry relative="1" as="geometry" />
        </mxCell>
        <mxCell id="mMATlmjo8T0dQmAiqcII-4" value="Entity" style="rounded=1;arcSize=10;whiteSpace=wrap;html=1;align=center;" vertex="1" parent="1">
          <mxGeometry x="360" y="110" width="100" height="40" as="geometry" />
        </mxCell>
      </root>
    </mxGraphModel>
  </diagram>
</mxfile>
